<svg width="171" height="63" viewBox="0 0 171 63" fill="none" xmlns="http://www.w3.org/2000/svg">
<path d="M63.352 33.64H69.272L68.792 32.36H63.832L63.352 33.64ZM66.28 28.328L68.2 32.84L68.328 33.16L69.96 37H71.48L66.28 25.24L61.08 37H62.6L64.264 33.064L64.392 32.776L66.28 28.328ZM74.6025 25.8V33.32C74.6025 33.8747 74.6878 34.3867 74.8585 34.856C75.0398 35.3253 75.2958 35.7307 75.6265 36.072C75.9678 36.4133 76.3732 36.68 76.8425 36.872C77.3118 37.064 77.8345 37.16 78.4105 37.16C78.9865 37.16 79.5092 37.064 79.9785 36.872C80.4478 36.68 80.8478 36.4133 81.1785 36.072C81.5198 35.7307 81.7758 35.3253 81.9465 34.856C82.1278 34.3867 82.2185 33.8747 82.2185 33.32V25.8H80.8585V33.32C80.8585 34.088 80.6505 34.7067 80.2345 35.176C79.8185 35.6453 79.2105 35.88 78.4105 35.88C77.6105 35.88 77.0025 35.6453 76.5865 35.176C76.1705 34.7067 75.9625 34.088 75.9625 33.32V25.8H74.6025ZM85.4181 27.08H88.2981V37H89.6581V27.08H92.5381V25.8H85.4181V27.08ZM96.5676 31.56H104.248V30.28H96.5676V31.56ZM103.336 25.8V37H104.696V25.8H103.336ZM95.8156 25.8V37H97.1756V25.8H95.8156Z" fill="#93F6FF"/>
<rect x="1" y="12" width="169" height="39" rx="19.5" stroke="url(#paint0_linear_8_99)" stroke-width="2"/>
<defs>
<linearGradient id="paint0_linear_8_99" x1="85.5" y1="11" x2="85.5" y2="52" gradientUnits="userSpaceOnUse">
<stop stop-color="#438DAD"/>
<stop offset="0.322917" stop-color="#57E3F2" stop-opacity="0.0574177"/>
<stop offset="0.494792" stop-color="#58E8F5" stop-opacity="0.01"/>
<stop offset="0.755208" stop-color="#58E8F5"/>
<stop offset="0.802083" stop-color="#58E8F5"/>
</linearGradient>
</defs>
</svg>
