<svg width="223" height="41" viewBox="0 0 223 41" fill="none" xmlns="http://www.w3.org/2000/svg">
<path d="M54.032 16.08H59.04V14.8H54.032V16.08ZM54.032 20.56H58.88V19.28H54.032V20.56ZM53.28 14.8V26H54.64V14.8H53.28ZM63.04 14.8V22.32C63.04 22.8747 63.1253 23.3867 63.296 23.856C63.4773 24.3253 63.7333 24.7307 64.064 25.072C64.4053 25.4133 64.8107 25.68 65.28 25.872C65.7493 26.064 66.272 26.16 66.848 26.16C67.424 26.16 67.9467 26.064 68.416 25.872C68.8853 25.68 69.2853 25.4133 69.616 25.072C69.9573 24.7307 70.2133 24.3253 70.384 23.856C70.5653 23.3867 70.656 22.8747 70.656 22.32V14.8H69.296V22.32C69.296 23.088 69.088 23.7067 68.672 24.176C68.256 24.6453 67.648 24.88 66.848 24.88C66.048 24.88 65.44 24.6453 65.024 24.176C64.608 23.7067 64.4 23.088 64.4 22.32V14.8H63.04ZM83.4556 14.8V23.136L74.9756 14.24V26H76.3356V17.664L84.8156 26.56V14.8H83.4556ZM89.2219 14.8V26H90.5819V14.8H89.2219ZM92.5819 26C93.6699 26 94.6352 25.7653 95.4779 25.296C96.3205 24.8267 96.9819 24.176 97.4619 23.344C97.9419 22.5013 98.1819 21.52 98.1819 20.4C98.1819 19.28 97.9419 18.304 97.4619 17.472C96.9819 16.6293 96.3205 15.9733 95.4779 15.504C94.6352 15.0347 93.6699 14.8 92.5819 14.8H89.9739V16.16H92.5819C93.2112 16.16 93.7872 16.2613 94.3099 16.464C94.8325 16.656 95.2805 16.9387 95.6539 17.312C96.0272 17.6747 96.3152 18.1173 96.5179 18.64C96.7205 19.1627 96.8219 19.7493 96.8219 20.4C96.8219 21.0507 96.7205 21.6373 96.5179 22.16C96.3152 22.6827 96.0272 23.1307 95.6539 23.504C95.2805 23.8667 94.8325 24.1493 94.3099 24.352C93.7872 24.544 93.2112 24.64 92.5819 24.64H89.9739V26H92.5819ZM118.542 23.04L115.214 14.24L111.95 23.04L108.974 14.8H107.454L111.854 26.56L115.214 17.856L118.574 26.56L122.974 14.8H121.454L118.542 23.04ZM125.736 22.64H131.656L131.176 21.36H126.216L125.736 22.64ZM128.664 17.328L130.584 21.84L130.712 22.16L132.344 26H133.864L128.664 14.24L123.464 26H124.984L126.648 22.064L126.776 21.776L128.664 17.328ZM137.066 14.8V26H142.826V24.72H138.426V14.8H137.066ZM146.109 14.8V26H151.869V24.72H147.469V14.8H146.109ZM155.904 26H161.552V24.72H155.904V26ZM155.904 16.08H161.552V14.8H155.904V16.08ZM155.904 20.56H161.232V19.28H155.904V20.56ZM155.152 14.8V26H156.512V14.8H155.152ZM164.669 16.08H167.549V26H168.909V16.08H171.789V14.8H164.669V16.08Z" fill="#93F6FF"/>
<rect x="1" y="1" width="221" height="39" rx="19.5" stroke="url(#paint0_linear_8_91)" stroke-width="2"/>
<defs>
<linearGradient id="paint0_linear_8_91" x1="111.5" y1="0" x2="111.5" y2="41" gradientUnits="userSpaceOnUse">
<stop stop-color="#243F4B"/>
<stop offset="0.494792" stop-color="#58E8F5" stop-opacity="0.01"/>
<stop offset="1" stop-color="#58E8F5"/>
</linearGradient>
</defs>
</svg>
