<svg width="617" height="113" viewBox="0 0 617 113" fill="none" xmlns="http://www.w3.org/2000/svg">
<rect width="617" height="99" rx="34" fill="#58E8F5" fill-opacity="0.07"/>
<path d="M29.352 40.64H35.272L34.792 39.36H29.832L29.352 40.64ZM32.28 35.328L34.2 39.84L34.328 40.16L35.96 44H37.48L32.28 32.24L27.08 44H28.6L30.264 40.064L30.392 39.776L32.28 35.328ZM42.61 41.12V36.64H41.33V41.28C41.33 42.1547 41.5593 42.8533 42.018 43.376C42.4767 43.8987 43.09 44.16 43.858 44.16C44.3487 44.16 44.7753 44.0533 45.138 43.84C45.5007 43.616 45.8047 43.2853 46.05 42.848V44H47.33V36.64H46.05V41.12C46.05 41.4827 45.97 41.8027 45.81 42.08C45.6607 42.3573 45.442 42.576 45.154 42.736C44.8767 42.8853 44.5513 42.96 44.178 42.96C43.666 42.96 43.2767 42.8 43.01 42.48C42.7433 42.16 42.61 41.7067 42.61 41.12ZM51.4963 36.64V37.84H55.1763V36.64H51.4963ZM52.6963 34.08V44H53.9763V34.08H52.6963ZM60.62 31.52H59.34V44H60.62V31.52ZM64.06 39.52V44H65.34V39.36C65.34 38.72 65.2333 38.1867 65.02 37.76C64.8173 37.3333 64.524 37.0133 64.14 36.8C63.7667 36.5867 63.324 36.48 62.812 36.48C62.3 36.48 61.8467 36.6133 61.452 36.88C61.068 37.1467 60.764 37.5093 60.54 37.968C60.316 38.416 60.204 38.9333 60.204 39.52H60.62C60.62 39.168 60.6947 38.8533 60.844 38.576C61.004 38.2987 61.2227 38.08 61.5 37.92C61.788 37.76 62.1187 37.68 62.492 37.68C63.0147 37.68 63.404 37.8347 63.66 38.144C63.9267 38.4533 64.06 38.912 64.06 39.52ZM73.4743 44.16C74.2636 44.16 74.9463 44.0053 75.5223 43.696C76.1089 43.376 76.5943 42.9067 76.9783 42.288L75.9383 41.632C75.6716 42.08 75.3463 42.416 74.9623 42.64C74.5783 42.8533 74.1356 42.96 73.6343 42.96C73.1329 42.96 72.7063 42.8533 72.3543 42.64C72.0023 42.4267 71.7356 42.1173 71.5543 41.712C71.3729 41.3067 71.2823 40.816 71.2823 40.24C71.2929 39.6747 71.3889 39.2 71.5703 38.816C71.7623 38.4213 72.0289 38.1227 72.3703 37.92C72.7223 37.7067 73.1436 37.6 73.6343 37.6C74.0503 37.6 74.4129 37.6907 74.7223 37.872C75.0316 38.0533 75.2716 38.304 75.4423 38.624C75.6236 38.944 75.7143 39.3227 75.7143 39.76C75.7143 39.8347 75.6983 39.9307 75.6663 40.048C75.6343 40.1547 75.6023 40.2347 75.5703 40.288L76.0823 39.552H70.8023V40.64H77.0903C77.0903 40.6187 77.0903 40.5707 77.0903 40.496C77.1009 40.4107 77.1063 40.3307 77.1063 40.256C77.1063 39.4773 76.9676 38.8053 76.6903 38.24C76.4129 37.6747 76.0129 37.2427 75.4903 36.944C74.9783 36.6347 74.3596 36.48 73.6343 36.48C72.9089 36.48 72.2689 36.64 71.7143 36.96C71.1703 37.28 70.7436 37.728 70.4343 38.304C70.1356 38.88 69.9863 39.552 69.9863 40.32C69.9863 41.0773 70.1303 41.744 70.4183 42.32C70.7169 42.896 71.1276 43.3493 71.6503 43.68C72.1836 44 72.7916 44.16 73.4743 44.16ZM86.4606 39.52V44H87.7406V39.36C87.7406 38.4747 87.5113 37.776 87.0526 37.264C86.6046 36.7413 85.9913 36.48 85.2126 36.48C84.7326 36.48 84.306 36.5867 83.9326 36.8C83.57 37.0133 83.266 37.344 83.0206 37.792V36.64H81.7406V44H83.0206V39.52C83.0206 39.1573 83.0953 38.8373 83.2446 38.56C83.4046 38.2827 83.6233 38.0693 83.9006 37.92C84.1886 37.76 84.5193 37.68 84.8926 37.68C85.4046 37.68 85.794 37.8347 86.0606 38.144C86.3273 38.4533 86.4606 38.912 86.4606 39.52ZM91.9069 36.64V37.84H95.5869V36.64H91.9069ZM93.1069 34.08V44H94.3869V34.08H93.1069ZM99.7506 33.6C99.7506 33.8347 99.836 34.0427 100.007 34.224C100.188 34.3947 100.396 34.48 100.631 34.48C100.876 34.48 101.084 34.3947 101.255 34.224C101.425 34.0427 101.511 33.8347 101.511 33.6C101.511 33.3547 101.425 33.1467 101.255 32.976C101.084 32.8053 100.876 32.72 100.631 32.72C100.396 32.72 100.188 32.8053 100.007 32.976C99.836 33.1467 99.7506 33.3547 99.7506 33.6ZM99.9906 36.64V44H101.271V36.64H99.9906ZM107.363 40.32C107.363 39.808 107.47 39.3547 107.683 38.96C107.907 38.5547 108.206 38.24 108.579 38.016C108.963 37.792 109.395 37.68 109.875 37.68C110.27 37.68 110.638 37.744 110.979 37.872C111.331 37.9893 111.635 38.1493 111.891 38.352C112.147 38.5547 112.328 38.7787 112.435 39.024V37.424C112.179 37.1253 111.811 36.896 111.331 36.736C110.862 36.5653 110.376 36.48 109.875 36.48C109.16 36.48 108.515 36.6453 107.939 36.976C107.363 37.3067 106.904 37.76 106.563 38.336C106.232 38.912 106.067 39.5733 106.067 40.32C106.067 41.056 106.232 41.7173 106.563 42.304C106.904 42.88 107.363 43.3333 107.939 43.664C108.515 43.9947 109.16 44.16 109.875 44.16C110.376 44.16 110.862 44.08 111.331 43.92C111.811 43.7493 112.179 43.5147 112.435 43.216V41.616C112.328 41.8507 112.147 42.0747 111.891 42.288C111.635 42.4907 111.331 42.656 110.979 42.784C110.638 42.9013 110.27 42.96 109.875 42.96C109.395 42.96 108.963 42.848 108.579 42.624C108.206 42.3893 107.907 42.0747 107.683 41.68C107.47 41.2853 107.363 40.832 107.363 40.32ZM117.883 41.728C117.883 41.4613 117.947 41.232 118.075 41.04C118.203 40.848 118.395 40.6987 118.651 40.592C118.918 40.4853 119.259 40.432 119.675 40.432C120.123 40.432 120.545 40.4907 120.939 40.608C121.334 40.7147 121.718 40.896 122.091 41.152V40.4C122.017 40.304 121.873 40.1813 121.659 40.032C121.446 39.872 121.158 39.7333 120.795 39.616C120.443 39.488 120.001 39.424 119.467 39.424C118.561 39.424 117.851 39.6427 117.339 40.08C116.838 40.5067 116.587 41.0773 116.587 41.792C116.587 42.2933 116.705 42.72 116.939 43.072C117.174 43.424 117.483 43.696 117.867 43.888C118.262 44.0693 118.683 44.16 119.131 44.16C119.537 44.16 119.942 44.0853 120.347 43.936C120.763 43.7867 121.11 43.5573 121.387 43.248C121.675 42.9387 121.819 42.5493 121.819 42.08L121.563 41.12C121.563 41.504 121.467 41.8453 121.275 42.144C121.094 42.432 120.843 42.656 120.523 42.816C120.214 42.976 119.862 43.056 119.467 43.056C119.158 43.056 118.881 43.008 118.635 42.912C118.401 42.8053 118.214 42.6507 118.075 42.448C117.947 42.2453 117.883 42.0053 117.883 41.728ZM117.691 38.336C117.809 38.2507 117.969 38.1493 118.171 38.032C118.374 37.9147 118.619 37.8133 118.907 37.728C119.206 37.6427 119.537 37.6 119.899 37.6C120.123 37.6 120.337 37.6213 120.539 37.664C120.742 37.7067 120.918 37.776 121.067 37.872C121.227 37.968 121.35 38.1013 121.435 38.272C121.521 38.432 121.563 38.64 121.563 38.896V44H122.843V38.72C122.843 38.24 122.721 37.8347 122.475 37.504C122.241 37.1733 121.905 36.9227 121.467 36.752C121.041 36.5707 120.539 36.48 119.963 36.48C119.281 36.48 118.694 36.5813 118.203 36.784C117.723 36.9867 117.345 37.1893 117.067 37.392L117.691 38.336ZM126.771 36.64V37.84H130.451V36.64H126.771ZM127.971 34.08V44H129.251V34.08H127.971ZM137.462 44.16C138.252 44.16 138.934 44.0053 139.51 43.696C140.097 43.376 140.582 42.9067 140.966 42.288L139.926 41.632C139.66 42.08 139.334 42.416 138.95 42.64C138.566 42.8533 138.124 42.96 137.622 42.96C137.121 42.96 136.694 42.8533 136.342 42.64C135.99 42.4267 135.724 42.1173 135.542 41.712C135.361 41.3067 135.27 40.816 135.27 40.24C135.281 39.6747 135.377 39.2 135.558 38.816C135.75 38.4213 136.017 38.1227 136.358 37.92C136.71 37.7067 137.132 37.6 137.622 37.6C138.038 37.6 138.401 37.6907 138.71 37.872C139.02 38.0533 139.26 38.304 139.43 38.624C139.612 38.944 139.702 39.3227 139.702 39.76C139.702 39.8347 139.686 39.9307 139.654 40.048C139.622 40.1547 139.59 40.2347 139.558 40.288L140.07 39.552H134.79V40.64H141.078C141.078 40.6187 141.078 40.5707 141.078 40.496C141.089 40.4107 141.094 40.3307 141.094 40.256C141.094 39.4773 140.956 38.8053 140.678 38.24C140.401 37.6747 140.001 37.2427 139.478 36.944C138.966 36.6347 138.348 36.48 137.622 36.48C136.897 36.48 136.257 36.64 135.702 36.96C135.158 37.28 134.732 37.728 134.422 38.304C134.124 38.88 133.974 39.552 133.974 40.32C133.974 41.0773 134.118 41.744 134.406 42.32C134.705 42.896 135.116 43.3493 135.638 43.68C136.172 44 136.78 44.16 137.462 44.16ZM154.686 41.12V36.64H153.406V41.28C153.406 42.1547 153.635 42.8533 154.094 43.376C154.552 43.8987 155.166 44.16 155.934 44.16C156.424 44.16 156.851 44.0533 157.214 43.84C157.576 43.616 157.88 43.2853 158.126 42.848V44H159.406V36.64H158.126V41.12C158.126 41.4827 158.046 41.8027 157.886 42.08C157.736 42.3573 157.518 42.576 157.23 42.736C156.952 42.8853 156.627 42.96 156.254 42.96C155.742 42.96 155.352 42.8 155.086 42.48C154.819 42.16 154.686 41.7067 154.686 41.12ZM164.996 41.744L163.988 42.368C164.127 42.656 164.329 42.9387 164.596 43.216C164.873 43.4933 165.209 43.7227 165.604 43.904C165.999 44.0747 166.441 44.16 166.932 44.16C167.689 44.16 168.297 43.9467 168.756 43.52C169.225 43.0933 169.46 42.56 169.46 41.92C169.46 41.4827 169.353 41.1253 169.14 40.848C168.937 40.5707 168.66 40.336 168.308 40.144C167.956 39.9413 167.567 39.7547 167.14 39.584C166.884 39.4773 166.639 39.3653 166.404 39.248C166.169 39.1307 165.977 38.9973 165.828 38.848C165.679 38.6987 165.604 38.528 165.604 38.336C165.604 38.0907 165.7 37.9093 165.892 37.792C166.084 37.6747 166.313 37.616 166.58 37.616C166.964 37.616 167.305 37.7067 167.604 37.888C167.913 38.0693 168.169 38.2987 168.372 38.576L169.396 37.92C169.247 37.6427 169.039 37.3973 168.772 37.184C168.505 36.9707 168.196 36.8 167.844 36.672C167.503 36.544 167.135 36.48 166.74 36.48C166.345 36.48 165.961 36.5493 165.588 36.688C165.225 36.8267 164.927 37.04 164.692 37.328C164.468 37.616 164.356 37.9787 164.356 38.416C164.356 38.8427 164.463 39.2 164.676 39.488C164.9 39.7653 165.172 39.9947 165.492 40.176C165.823 40.3467 166.148 40.496 166.468 40.624C166.756 40.7307 167.028 40.848 167.284 40.976C167.54 41.0933 167.748 41.2427 167.908 41.424C168.079 41.5947 168.164 41.808 168.164 42.064C168.164 42.352 168.057 42.5813 167.844 42.752C167.641 42.912 167.359 42.992 166.996 42.992C166.697 42.992 166.42 42.9387 166.164 42.832C165.919 42.7147 165.7 42.56 165.508 42.368C165.316 42.176 165.145 41.968 164.996 41.744ZM174.025 33.6C174.025 33.8347 174.11 34.0427 174.281 34.224C174.462 34.3947 174.67 34.48 174.905 34.48C175.15 34.48 175.358 34.3947 175.529 34.224C175.7 34.0427 175.785 33.8347 175.785 33.6C175.785 33.3547 175.7 33.1467 175.529 32.976C175.358 32.8053 175.15 32.72 174.905 32.72C174.67 32.72 174.462 32.8053 174.281 32.976C174.11 33.1467 174.025 33.3547 174.025 33.6ZM174.265 36.64V44H175.545V36.64H174.265ZM185.781 39.52V44H187.061V39.36C187.061 38.4747 186.832 37.776 186.373 37.264C185.925 36.7413 185.312 36.48 184.533 36.48C184.053 36.48 183.627 36.5867 183.253 36.8C182.891 37.0133 182.587 37.344 182.341 37.792V36.64H181.061V44H182.341V39.52C182.341 39.1573 182.416 38.8373 182.565 38.56C182.725 38.2827 182.944 38.0693 183.221 37.92C183.509 37.76 183.84 37.68 184.213 37.68C184.725 37.68 185.115 37.8347 185.381 38.144C185.648 38.4533 185.781 38.912 185.781 39.52ZM191.852 44.48C191.852 45.1093 192.006 45.664 192.316 46.144C192.625 46.6347 193.052 47.0133 193.596 47.28C194.15 47.5467 194.785 47.68 195.5 47.68C196.118 47.68 196.705 47.536 197.26 47.248C197.814 46.96 198.268 46.528 198.62 45.952C198.972 45.3867 199.148 44.6827 199.148 43.84V36.64H197.868V43.84C197.868 44.4587 197.745 44.96 197.5 45.344C197.265 45.7387 196.966 46.0267 196.604 46.208C196.241 46.3893 195.873 46.48 195.5 46.48C195.02 46.48 194.604 46.384 194.252 46.192C193.9 46.0107 193.628 45.7653 193.436 45.456C193.244 45.1573 193.148 44.832 193.148 44.48H191.852ZM191.708 40.32C191.708 41.1093 191.873 41.792 192.204 42.368C192.534 42.944 192.977 43.3867 193.532 43.696C194.086 44.0053 194.694 44.16 195.356 44.16C195.974 44.16 196.513 44.0053 196.972 43.696C197.43 43.3867 197.788 42.944 198.044 42.368C198.31 41.792 198.444 41.1093 198.444 40.32C198.444 39.52 198.31 38.8373 198.044 38.272C197.788 37.696 197.43 37.2533 196.972 36.944C196.513 36.6347 195.974 36.48 195.356 36.48C194.694 36.48 194.086 36.6347 193.532 36.944C192.977 37.2533 192.534 37.696 192.204 38.272C191.873 38.8373 191.708 39.52 191.708 40.32ZM193.004 40.32C193.004 39.7547 193.116 39.2747 193.34 38.88C193.574 38.4853 193.884 38.1867 194.268 37.984C194.652 37.7813 195.068 37.68 195.516 37.68C195.793 37.68 196.07 37.7387 196.348 37.856C196.625 37.9733 196.876 38.144 197.1 38.368C197.334 38.592 197.521 38.8693 197.66 39.2C197.798 39.52 197.868 39.8933 197.868 40.32C197.868 40.8853 197.75 41.3653 197.516 41.76C197.281 42.1547 196.982 42.4533 196.62 42.656C196.257 42.8587 195.889 42.96 195.516 42.96C195.068 42.96 194.652 42.8587 194.268 42.656C193.884 42.4533 193.574 42.1547 193.34 41.76C193.116 41.3653 193.004 40.8853 193.004 40.32ZM212.605 41.728C212.605 41.4613 212.669 41.232 212.797 41.04C212.925 40.848 213.117 40.6987 213.373 40.592C213.64 40.4853 213.981 40.432 214.397 40.432C214.845 40.432 215.267 40.4907 215.661 40.608C216.056 40.7147 216.44 40.896 216.813 41.152V40.4C216.739 40.304 216.595 40.1813 216.381 40.032C216.168 39.872 215.88 39.7333 215.517 39.616C215.165 39.488 214.723 39.424 214.189 39.424C213.283 39.424 212.573 39.6427 212.061 40.08C211.56 40.5067 211.309 41.0773 211.309 41.792C211.309 42.2933 211.427 42.72 211.661 43.072C211.896 43.424 212.205 43.696 212.589 43.888C212.984 44.0693 213.405 44.16 213.853 44.16C214.259 44.16 214.664 44.0853 215.069 43.936C215.485 43.7867 215.832 43.5573 216.109 43.248C216.397 42.9387 216.541 42.5493 216.541 42.08L216.285 41.12C216.285 41.504 216.189 41.8453 215.997 42.144C215.816 42.432 215.565 42.656 215.245 42.816C214.936 42.976 214.584 43.056 214.189 43.056C213.88 43.056 213.603 43.008 213.357 42.912C213.123 42.8053 212.936 42.6507 212.797 42.448C212.669 42.2453 212.605 42.0053 212.605 41.728ZM212.413 38.336C212.531 38.2507 212.691 38.1493 212.893 38.032C213.096 37.9147 213.341 37.8133 213.629 37.728C213.928 37.6427 214.259 37.6 214.621 37.6C214.845 37.6 215.059 37.6213 215.261 37.664C215.464 37.7067 215.64 37.776 215.789 37.872C215.949 37.968 216.072 38.1013 216.157 38.272C216.243 38.432 216.285 38.64 216.285 38.896V44H217.565V38.72C217.565 38.24 217.443 37.8347 217.197 37.504C216.963 37.1733 216.627 36.9227 216.189 36.752C215.763 36.5707 215.261 36.48 214.685 36.48C214.003 36.48 213.416 36.5813 212.925 36.784C212.445 36.9867 212.067 37.1893 211.789 37.392L212.413 38.336ZM227.333 39.52V44H228.613V39.36C228.613 38.4747 228.383 37.776 227.925 37.264C227.477 36.7413 226.863 36.48 226.085 36.48C225.605 36.48 225.178 36.5867 224.805 36.8C224.442 37.0133 224.138 37.344 223.893 37.792V36.64H222.613V44H223.893V39.52C223.893 39.1573 223.967 38.8373 224.117 38.56C224.277 38.2827 224.495 38.0693 224.773 37.92C225.061 37.76 225.391 37.68 225.765 37.68C226.277 37.68 226.666 37.8347 226.933 38.144C227.199 38.4533 227.333 38.912 227.333 39.52ZM244.424 44.16C245.213 44.16 245.896 44.0053 246.472 43.696C247.058 43.376 247.544 42.9067 247.928 42.288L246.888 41.632C246.621 42.08 246.296 42.416 245.912 42.64C245.528 42.8533 245.085 42.96 244.584 42.96C244.082 42.96 243.656 42.8533 243.304 42.64C242.952 42.4267 242.685 42.1173 242.504 41.712C242.322 41.3067 242.232 40.816 242.232 40.24C242.242 39.6747 242.338 39.2 242.52 38.816C242.712 38.4213 242.978 38.1227 243.32 37.92C243.672 37.7067 244.093 37.6 244.584 37.6C245 37.6 245.362 37.6907 245.672 37.872C245.981 38.0533 246.221 38.304 246.392 38.624C246.573 38.944 246.664 39.3227 246.664 39.76C246.664 39.8347 246.648 39.9307 246.616 40.048C246.584 40.1547 246.552 40.2347 246.52 40.288L247.032 39.552H241.752V40.64H248.04C248.04 40.6187 248.04 40.5707 248.04 40.496C248.05 40.4107 248.056 40.3307 248.056 40.256C248.056 39.4773 247.917 38.8053 247.64 38.24C247.362 37.6747 246.962 37.2427 246.44 36.944C245.928 36.6347 245.309 36.48 244.584 36.48C243.858 36.48 243.218 36.64 242.664 36.96C242.12 37.28 241.693 37.728 241.384 38.304C241.085 38.88 240.936 39.552 240.936 40.32C240.936 41.0773 241.08 41.744 241.368 42.32C241.666 42.896 242.077 43.3493 242.6 43.68C243.133 44 243.741 44.16 244.424 44.16ZM262.77 39.36C262.77 38.752 262.674 38.2347 262.482 37.808C262.301 37.3707 262.034 37.04 261.682 36.816C261.33 36.592 260.903 36.48 260.402 36.48C259.911 36.48 259.474 36.5973 259.09 36.832C258.706 37.056 258.386 37.3973 258.13 37.856C257.959 37.4187 257.687 37.0827 257.314 36.848C256.951 36.6027 256.514 36.48 256.002 36.48C255.543 36.48 255.143 36.5813 254.802 36.784C254.471 36.9867 254.194 37.296 253.97 37.712V36.64H252.69V44H253.97V39.52C253.97 39.136 254.039 38.8053 254.178 38.528C254.317 38.2507 254.514 38.0427 254.77 37.904C255.026 37.7547 255.33 37.68 255.682 37.68C256.162 37.68 256.514 37.8293 256.738 38.128C256.973 38.4267 257.09 38.8907 257.09 39.52V44H258.37V39.52C258.37 39.136 258.439 38.8053 258.578 38.528C258.717 38.2507 258.914 38.0427 259.17 37.904C259.426 37.7547 259.73 37.68 260.082 37.68C260.562 37.68 260.914 37.8293 261.138 38.128C261.373 38.4267 261.49 38.8907 261.49 39.52V44H262.77V39.36ZM268.63 41.728C268.63 41.4613 268.694 41.232 268.822 41.04C268.95 40.848 269.142 40.6987 269.398 40.592C269.665 40.4853 270.006 40.432 270.422 40.432C270.87 40.432 271.292 40.4907 271.686 40.608C272.081 40.7147 272.465 40.896 272.838 41.152V40.4C272.764 40.304 272.62 40.1813 272.406 40.032C272.193 39.872 271.905 39.7333 271.542 39.616C271.19 39.488 270.748 39.424 270.214 39.424C269.308 39.424 268.598 39.6427 268.086 40.08C267.585 40.5067 267.334 41.0773 267.334 41.792C267.334 42.2933 267.452 42.72 267.686 43.072C267.921 43.424 268.23 43.696 268.614 43.888C269.009 44.0693 269.43 44.16 269.878 44.16C270.284 44.16 270.689 44.0853 271.094 43.936C271.51 43.7867 271.857 43.5573 272.134 43.248C272.422 42.9387 272.566 42.5493 272.566 42.08L272.31 41.12C272.31 41.504 272.214 41.8453 272.022 42.144C271.841 42.432 271.59 42.656 271.27 42.816C270.961 42.976 270.609 43.056 270.214 43.056C269.905 43.056 269.628 43.008 269.382 42.912C269.148 42.8053 268.961 42.6507 268.822 42.448C268.694 42.2453 268.63 42.0053 268.63 41.728ZM268.438 38.336C268.556 38.2507 268.716 38.1493 268.918 38.032C269.121 37.9147 269.366 37.8133 269.654 37.728C269.953 37.6427 270.284 37.6 270.646 37.6C270.87 37.6 271.084 37.6213 271.286 37.664C271.489 37.7067 271.665 37.776 271.814 37.872C271.974 37.968 272.097 38.1013 272.182 38.272C272.268 38.432 272.31 38.64 272.31 38.896V44H273.59V38.72C273.59 38.24 273.468 37.8347 273.222 37.504C272.988 37.1733 272.652 36.9227 272.214 36.752C271.788 36.5707 271.286 36.48 270.71 36.48C270.028 36.48 269.441 36.5813 268.95 36.784C268.47 36.9867 268.092 37.1893 267.814 37.392L268.438 38.336ZM278.638 33.6C278.638 33.8347 278.723 34.0427 278.894 34.224C279.075 34.3947 279.283 34.48 279.518 34.48C279.763 34.48 279.971 34.3947 280.142 34.224C280.312 34.0427 280.398 33.8347 280.398 33.6C280.398 33.3547 280.312 33.1467 280.142 32.976C279.971 32.8053 279.763 32.72 279.518 32.72C279.283 32.72 279.075 32.8053 278.894 32.976C278.723 33.1467 278.638 33.3547 278.638 33.6ZM278.878 36.64V44H280.158V36.64H278.878ZM285.674 31.52V44H286.954V31.52H285.674ZM293.409 42.24L292.001 46.384L292.929 46.72L294.689 42.72L293.409 42.24ZM308.024 41.744L307.016 42.368C307.155 42.656 307.357 42.9387 307.624 43.216C307.901 43.4933 308.237 43.7227 308.632 43.904C309.027 44.0747 309.469 44.16 309.96 44.16C310.717 44.16 311.325 43.9467 311.784 43.52C312.253 43.0933 312.488 42.56 312.488 41.92C312.488 41.4827 312.381 41.1253 312.168 40.848C311.965 40.5707 311.688 40.336 311.336 40.144C310.984 39.9413 310.595 39.7547 310.168 39.584C309.912 39.4773 309.667 39.3653 309.432 39.248C309.197 39.1307 309.005 38.9973 308.856 38.848C308.707 38.6987 308.632 38.528 308.632 38.336C308.632 38.0907 308.728 37.9093 308.92 37.792C309.112 37.6747 309.341 37.616 309.608 37.616C309.992 37.616 310.333 37.7067 310.632 37.888C310.941 38.0693 311.197 38.2987 311.4 38.576L312.424 37.92C312.275 37.6427 312.067 37.3973 311.8 37.184C311.533 36.9707 311.224 36.8 310.872 36.672C310.531 36.544 310.163 36.48 309.768 36.48C309.373 36.48 308.989 36.5493 308.616 36.688C308.253 36.8267 307.955 37.04 307.72 37.328C307.496 37.616 307.384 37.9787 307.384 38.416C307.384 38.8427 307.491 39.2 307.704 39.488C307.928 39.7653 308.2 39.9947 308.52 40.176C308.851 40.3467 309.176 40.496 309.496 40.624C309.784 40.7307 310.056 40.848 310.312 40.976C310.568 41.0933 310.776 41.2427 310.936 41.424C311.107 41.5947 311.192 41.808 311.192 42.064C311.192 42.352 311.085 42.5813 310.872 42.752C310.669 42.912 310.387 42.992 310.024 42.992C309.725 42.992 309.448 42.9387 309.192 42.832C308.947 42.7147 308.728 42.56 308.536 42.368C308.344 42.176 308.173 41.968 308.024 41.744ZM316.413 40.32C316.413 41.056 316.578 41.7173 316.909 42.304C317.25 42.88 317.709 43.3333 318.285 43.664C318.861 43.9947 319.506 44.16 320.221 44.16C320.946 44.16 321.592 43.9947 322.157 43.664C322.733 43.3333 323.186 42.88 323.517 42.304C323.858 41.7173 324.029 41.056 324.029 40.32C324.029 39.5733 323.858 38.912 323.517 38.336C323.186 37.76 322.733 37.3067 322.157 36.976C321.592 36.6453 320.946 36.48 320.221 36.48C319.506 36.48 318.861 36.6453 318.285 36.976C317.709 37.3067 317.25 37.76 316.909 38.336C316.578 38.912 316.413 39.5733 316.413 40.32ZM317.709 40.32C317.709 39.808 317.816 39.3547 318.029 38.96C318.253 38.5547 318.552 38.24 318.925 38.016C319.309 37.792 319.741 37.68 320.221 37.68C320.701 37.68 321.128 37.792 321.501 38.016C321.885 38.24 322.184 38.5547 322.397 38.96C322.621 39.3547 322.733 39.808 322.733 40.32C322.733 40.832 322.621 41.2853 322.397 41.68C322.184 42.0747 321.885 42.3893 321.501 42.624C321.128 42.848 320.701 42.96 320.221 42.96C319.741 42.96 319.309 42.848 318.925 42.624C318.552 42.3893 318.253 42.0747 318.029 41.68C317.816 41.2853 317.709 40.832 317.709 40.32ZM329.243 40.32C329.243 39.808 329.35 39.3547 329.563 38.96C329.787 38.5547 330.086 38.24 330.459 38.016C330.843 37.792 331.275 37.68 331.755 37.68C332.15 37.68 332.518 37.744 332.859 37.872C333.211 37.9893 333.515 38.1493 333.771 38.352C334.027 38.5547 334.209 38.7787 334.315 39.024V37.424C334.059 37.1253 333.691 36.896 333.211 36.736C332.742 36.5653 332.257 36.48 331.755 36.48C331.041 36.48 330.395 36.6453 329.819 36.976C329.243 37.3067 328.785 37.76 328.443 38.336C328.113 38.912 327.947 39.5733 327.947 40.32C327.947 41.056 328.113 41.7173 328.443 42.304C328.785 42.88 329.243 43.3333 329.819 43.664C330.395 43.9947 331.041 44.16 331.755 44.16C332.257 44.16 332.742 44.08 333.211 43.92C333.691 43.7493 334.059 43.5147 334.315 43.216V41.616C334.209 41.8507 334.027 42.0747 333.771 42.288C333.515 42.4907 333.211 42.656 332.859 42.784C332.518 42.9013 332.15 42.96 331.755 42.96C331.275 42.96 330.843 42.848 330.459 42.624C330.086 42.3893 329.787 42.0747 329.563 41.68C329.35 41.2853 329.243 40.832 329.243 40.32ZM339.188 33.6C339.188 33.8347 339.273 34.0427 339.444 34.224C339.625 34.3947 339.833 34.48 340.068 34.48C340.313 34.48 340.521 34.3947 340.692 34.224C340.863 34.0427 340.948 33.8347 340.948 33.6C340.948 33.3547 340.863 33.1467 340.692 32.976C340.521 32.8053 340.313 32.72 340.068 32.72C339.833 32.72 339.625 32.8053 339.444 32.976C339.273 33.1467 339.188 33.3547 339.188 33.6ZM339.428 36.64V44H340.708V36.64H339.428ZM346.8 41.728C346.8 41.4613 346.864 41.232 346.992 41.04C347.12 40.848 347.312 40.6987 347.568 40.592C347.835 40.4853 348.176 40.432 348.592 40.432C349.04 40.432 349.462 40.4907 349.856 40.608C350.251 40.7147 350.635 40.896 351.008 41.152V40.4C350.934 40.304 350.79 40.1813 350.576 40.032C350.363 39.872 350.075 39.7333 349.712 39.616C349.36 39.488 348.918 39.424 348.384 39.424C347.478 39.424 346.768 39.6427 346.256 40.08C345.755 40.5067 345.504 41.0773 345.504 41.792C345.504 42.2933 345.622 42.72 345.856 43.072C346.091 43.424 346.4 43.696 346.784 43.888C347.179 44.0693 347.6 44.16 348.048 44.16C348.454 44.16 348.859 44.0853 349.264 43.936C349.68 43.7867 350.027 43.5573 350.304 43.248C350.592 42.9387 350.736 42.5493 350.736 42.08L350.48 41.12C350.48 41.504 350.384 41.8453 350.192 42.144C350.011 42.432 349.76 42.656 349.44 42.816C349.131 42.976 348.779 43.056 348.384 43.056C348.075 43.056 347.798 43.008 347.552 42.912C347.318 42.8053 347.131 42.6507 346.992 42.448C346.864 42.2453 346.8 42.0053 346.8 41.728ZM346.608 38.336C346.726 38.2507 346.886 38.1493 347.088 38.032C347.291 37.9147 347.536 37.8133 347.824 37.728C348.123 37.6427 348.454 37.6 348.816 37.6C349.04 37.6 349.254 37.6213 349.456 37.664C349.659 37.7067 349.835 37.776 349.984 37.872C350.144 37.968 350.267 38.1013 350.352 38.272C350.438 38.432 350.48 38.64 350.48 38.896V44H351.76V38.72C351.76 38.24 351.638 37.8347 351.392 37.504C351.158 37.1733 350.822 36.9227 350.384 36.752C349.958 36.5707 349.456 36.48 348.88 36.48C348.198 36.48 347.611 36.5813 347.12 36.784C346.64 36.9867 346.262 37.1893 345.984 37.392L346.608 38.336ZM356.808 31.52V44H358.088V31.52H356.808ZM381.132 39.36C381.132 38.752 381.036 38.2347 380.844 37.808C380.663 37.3707 380.396 37.04 380.044 36.816C379.692 36.592 379.265 36.48 378.764 36.48C378.273 36.48 377.836 36.5973 377.452 36.832C377.068 37.056 376.748 37.3973 376.492 37.856C376.321 37.4187 376.049 37.0827 375.676 36.848C375.313 36.6027 374.876 36.48 374.364 36.48C373.905 36.48 373.505 36.5813 373.164 36.784C372.833 36.9867 372.556 37.296 372.332 37.712V36.64H371.052V44H372.332V39.52C372.332 39.136 372.401 38.8053 372.54 38.528C372.679 38.2507 372.876 38.0427 373.132 37.904C373.388 37.7547 373.692 37.68 374.044 37.68C374.524 37.68 374.876 37.8293 375.1 38.128C375.335 38.4267 375.452 38.8907 375.452 39.52V44H376.732V39.52C376.732 39.136 376.801 38.8053 376.94 38.528C377.079 38.2507 377.276 38.0427 377.532 37.904C377.788 37.7547 378.092 37.68 378.444 37.68C378.924 37.68 379.276 37.8293 379.5 38.128C379.735 38.4267 379.852 38.8907 379.852 39.52V44H381.132V39.36ZM389.264 44.16C390.054 44.16 390.736 44.0053 391.312 43.696C391.899 43.376 392.384 42.9067 392.768 42.288L391.728 41.632C391.462 42.08 391.136 42.416 390.752 42.64C390.368 42.8533 389.926 42.96 389.424 42.96C388.923 42.96 388.496 42.8533 388.144 42.64C387.792 42.4267 387.526 42.1173 387.344 41.712C387.163 41.3067 387.072 40.816 387.072 40.24C387.083 39.6747 387.179 39.2 387.36 38.816C387.552 38.4213 387.819 38.1227 388.16 37.92C388.512 37.7067 388.934 37.6 389.424 37.6C389.84 37.6 390.203 37.6907 390.512 37.872C390.822 38.0533 391.062 38.304 391.232 38.624C391.414 38.944 391.504 39.3227 391.504 39.76C391.504 39.8347 391.488 39.9307 391.456 40.048C391.424 40.1547 391.392 40.2347 391.36 40.288L391.872 39.552H386.592V40.64H392.88C392.88 40.6187 392.88 40.5707 392.88 40.496C392.891 40.4107 392.896 40.3307 392.896 40.256C392.896 39.4773 392.758 38.8053 392.48 38.24C392.203 37.6747 391.803 37.2427 391.28 36.944C390.768 36.6347 390.15 36.48 389.424 36.48C388.699 36.48 388.059 36.64 387.504 36.96C386.96 37.28 386.534 37.728 386.224 38.304C385.926 38.88 385.776 39.552 385.776 40.32C385.776 41.0773 385.92 41.744 386.208 42.32C386.507 42.896 386.918 43.3493 387.44 43.68C387.974 44 388.582 44.16 389.264 44.16ZM403.051 31.52V44H404.331V31.52H403.051ZM396.891 40.32C396.891 41.1093 397.056 41.792 397.387 42.368C397.717 42.944 398.16 43.3867 398.715 43.696C399.269 44.0053 399.877 44.16 400.539 44.16C401.157 44.16 401.696 44.0053 402.155 43.696C402.613 43.3867 402.971 42.944 403.227 42.368C403.493 41.792 403.627 41.1093 403.627 40.32C403.627 39.52 403.493 38.8373 403.227 38.272C402.971 37.696 402.613 37.2533 402.155 36.944C401.696 36.6347 401.157 36.48 400.539 36.48C399.877 36.48 399.269 36.6347 398.715 36.944C398.16 37.2533 397.717 37.696 397.387 38.272C397.056 38.8373 396.891 39.52 396.891 40.32ZM398.187 40.32C398.187 39.7547 398.299 39.2747 398.523 38.88C398.757 38.4853 399.067 38.1867 399.451 37.984C399.835 37.7813 400.251 37.68 400.699 37.68C401.072 37.68 401.44 37.7813 401.803 37.984C402.165 38.1867 402.464 38.4853 402.699 38.88C402.933 39.2747 403.051 39.7547 403.051 40.32C403.051 40.8853 402.933 41.3653 402.699 41.76C402.464 42.1547 402.165 42.4533 401.803 42.656C401.44 42.8587 401.072 42.96 400.699 42.96C400.251 42.96 399.835 42.8587 399.451 42.656C399.067 42.4533 398.757 42.1547 398.523 41.76C398.299 41.3653 398.187 40.8853 398.187 40.32ZM409.536 33.6C409.536 33.8347 409.621 34.0427 409.792 34.224C409.973 34.3947 410.181 34.48 410.416 34.48C410.661 34.48 410.869 34.3947 411.04 34.224C411.21 34.0427 411.296 33.8347 411.296 33.6C411.296 33.3547 411.21 33.1467 411.04 32.976C410.869 32.8053 410.661 32.72 410.416 32.72C410.181 32.72 409.973 32.8053 409.792 32.976C409.621 33.1467 409.536 33.3547 409.536 33.6ZM409.776 36.64V44H411.056V36.64H409.776ZM417.148 41.728C417.148 41.4613 417.212 41.232 417.34 41.04C417.468 40.848 417.66 40.6987 417.916 40.592C418.183 40.4853 418.524 40.432 418.94 40.432C419.388 40.432 419.809 40.4907 420.204 40.608C420.599 40.7147 420.983 40.896 421.356 41.152V40.4C421.281 40.304 421.137 40.1813 420.924 40.032C420.711 39.872 420.423 39.7333 420.06 39.616C419.708 39.488 419.265 39.424 418.732 39.424C417.825 39.424 417.116 39.6427 416.604 40.08C416.103 40.5067 415.852 41.0773 415.852 41.792C415.852 42.2933 415.969 42.72 416.204 43.072C416.439 43.424 416.748 43.696 417.132 43.888C417.527 44.0693 417.948 44.16 418.396 44.16C418.801 44.16 419.207 44.0853 419.612 43.936C420.028 43.7867 420.375 43.5573 420.652 43.248C420.94 42.9387 421.084 42.5493 421.084 42.08L420.828 41.12C420.828 41.504 420.732 41.8453 420.54 42.144C420.359 42.432 420.108 42.656 419.788 42.816C419.479 42.976 419.127 43.056 418.732 43.056C418.423 43.056 418.145 43.008 417.9 42.912C417.665 42.8053 417.479 42.6507 417.34 42.448C417.212 42.2453 417.148 42.0053 417.148 41.728ZM416.956 38.336C417.073 38.2507 417.233 38.1493 417.436 38.032C417.639 37.9147 417.884 37.8133 418.172 37.728C418.471 37.6427 418.801 37.6 419.164 37.6C419.388 37.6 419.601 37.6213 419.804 37.664C420.007 37.7067 420.183 37.776 420.332 37.872C420.492 37.968 420.615 38.1013 420.7 38.272C420.785 38.432 420.828 38.64 420.828 38.896V44H422.108V38.72C422.108 38.24 421.985 37.8347 421.74 37.504C421.505 37.1733 421.169 36.9227 420.732 36.752C420.305 36.5707 419.804 36.48 419.228 36.48C418.545 36.48 417.959 36.5813 417.468 36.784C416.988 36.9867 416.609 37.1893 416.332 37.392L416.956 38.336ZM428.323 42.24L426.915 46.384L427.843 46.72L429.603 42.72L428.323 42.24ZM441.994 40.32C441.994 41.056 442.159 41.7173 442.49 42.304C442.831 42.88 443.29 43.3333 443.866 43.664C444.442 43.9947 445.087 44.16 445.802 44.16C446.527 44.16 447.172 43.9947 447.738 43.664C448.314 43.3333 448.767 42.88 449.098 42.304C449.439 41.7173 449.61 41.056 449.61 40.32C449.61 39.5733 449.439 38.912 449.098 38.336C448.767 37.76 448.314 37.3067 447.738 36.976C447.172 36.6453 446.527 36.48 445.802 36.48C445.087 36.48 444.442 36.6453 443.866 36.976C443.29 37.3067 442.831 37.76 442.49 38.336C442.159 38.912 441.994 39.5733 441.994 40.32ZM443.29 40.32C443.29 39.808 443.396 39.3547 443.61 38.96C443.834 38.5547 444.132 38.24 444.506 38.016C444.89 37.792 445.322 37.68 445.802 37.68C446.282 37.68 446.708 37.792 447.082 38.016C447.466 38.24 447.764 38.5547 447.978 38.96C448.202 39.3547 448.314 39.808 448.314 40.32C448.314 40.832 448.202 41.2853 447.978 41.68C447.764 42.0747 447.466 42.3893 447.082 42.624C446.708 42.848 446.282 42.96 445.802 42.96C445.322 42.96 444.89 42.848 444.506 42.624C444.132 42.3893 443.834 42.0747 443.61 41.68C443.396 41.2853 443.29 40.832 443.29 40.32ZM455.528 36.64H454.248V44H455.528V36.64ZM457.752 38.048L458.456 36.992C458.264 36.7893 458.051 36.656 457.816 36.592C457.592 36.5173 457.347 36.48 457.08 36.48C456.739 36.48 456.403 36.6133 456.072 36.88C455.741 37.1467 455.469 37.5093 455.256 37.968C455.053 38.416 454.952 38.9333 454.952 39.52H455.528C455.528 39.168 455.56 38.8533 455.624 38.576C455.699 38.2987 455.827 38.08 456.008 37.92C456.189 37.76 456.44 37.68 456.76 37.68C456.973 37.68 457.149 37.712 457.288 37.776C457.427 37.8293 457.581 37.92 457.752 38.048ZM470.865 40.32C470.865 39.808 470.972 39.3547 471.185 38.96C471.409 38.5547 471.708 38.24 472.081 38.016C472.465 37.792 472.897 37.68 473.377 37.68C473.772 37.68 474.14 37.744 474.481 37.872C474.833 37.9893 475.137 38.1493 475.393 38.352C475.649 38.5547 475.831 38.7787 475.937 39.024V37.424C475.681 37.1253 475.313 36.896 474.833 36.736C474.364 36.5653 473.879 36.48 473.377 36.48C472.663 36.48 472.017 36.6453 471.441 36.976C470.865 37.3067 470.407 37.76 470.065 38.336C469.735 38.912 469.569 39.5733 469.569 40.32C469.569 41.056 469.735 41.7173 470.065 42.304C470.407 42.88 470.865 43.3333 471.441 43.664C472.017 43.9947 472.663 44.16 473.377 44.16C473.879 44.16 474.364 44.08 474.833 43.92C475.313 43.7493 475.681 43.5147 475.937 43.216V41.616C475.831 41.8507 475.649 42.0747 475.393 42.288C475.137 42.4907 474.833 42.656 474.481 42.784C474.14 42.9013 473.772 42.96 473.377 42.96C472.897 42.96 472.465 42.848 472.081 42.624C471.708 42.3893 471.409 42.0747 471.185 41.68C470.972 41.2853 470.865 40.832 470.865 40.32ZM482.09 36.64H480.81V44H482.09V36.64ZM484.314 38.048L485.018 36.992C484.826 36.7893 484.613 36.656 484.378 36.592C484.154 36.5173 483.909 36.48 483.642 36.48C483.301 36.48 482.965 36.6133 482.634 36.88C482.303 37.1467 482.031 37.5093 481.818 37.968C481.615 38.416 481.514 38.9333 481.514 39.52H482.09C482.09 39.168 482.122 38.8533 482.186 38.576C482.261 38.2987 482.389 38.08 482.57 37.92C482.751 37.76 483.002 37.68 483.322 37.68C483.535 37.68 483.711 37.712 483.85 37.776C483.989 37.8293 484.143 37.92 484.314 38.048ZM495.499 36.64H494.059L491.787 42.336L492.315 42.4L489.979 36.64H488.459L491.275 42.96L489.259 47.52H490.699L495.499 36.64ZM500.786 47.52V36.64H499.506V47.52H500.786ZM506.946 40.32C506.946 39.52 506.78 38.8373 506.45 38.272C506.119 37.696 505.676 37.2533 505.122 36.944C504.578 36.6347 503.97 36.48 503.298 36.48C502.69 36.48 502.151 36.6347 501.682 36.944C501.223 37.2533 500.86 37.696 500.594 38.272C500.338 38.8373 500.21 39.52 500.21 40.32C500.21 41.1093 500.338 41.792 500.594 42.368C500.86 42.944 501.223 43.3867 501.682 43.696C502.151 44.0053 502.69 44.16 503.298 44.16C503.97 44.16 504.578 44.0053 505.122 43.696C505.676 43.3867 506.119 42.944 506.45 42.368C506.78 41.792 506.946 41.1093 506.946 40.32ZM505.65 40.32C505.65 40.8853 505.532 41.3653 505.298 41.76C505.074 42.1547 504.77 42.4533 504.386 42.656C504.012 42.8587 503.596 42.96 503.138 42.96C502.764 42.96 502.396 42.8587 502.034 42.656C501.671 42.4533 501.372 42.1547 501.138 41.76C500.903 41.3653 500.786 40.8853 500.786 40.32C500.786 39.7547 500.903 39.2747 501.138 38.88C501.372 38.4853 501.671 38.1867 502.034 37.984C502.396 37.7813 502.764 37.68 503.138 37.68C503.596 37.68 504.012 37.7813 504.386 37.984C504.77 38.1867 505.074 38.4853 505.298 38.88C505.532 39.2747 505.65 39.7547 505.65 40.32ZM510.471 36.64V37.84H514.151V36.64H510.471ZM511.671 34.08V44H512.951V34.08H511.671ZM517.674 40.32C517.674 41.056 517.84 41.7173 518.17 42.304C518.512 42.88 518.97 43.3333 519.546 43.664C520.122 43.9947 520.768 44.16 521.482 44.16C522.208 44.16 522.853 43.9947 523.418 43.664C523.994 43.3333 524.448 42.88 524.778 42.304C525.12 41.7173 525.29 41.056 525.29 40.32C525.29 39.5733 525.12 38.912 524.778 38.336C524.448 37.76 523.994 37.3067 523.418 36.976C522.853 36.6453 522.208 36.48 521.482 36.48C520.768 36.48 520.122 36.6453 519.546 36.976C518.97 37.3067 518.512 37.76 518.17 38.336C517.84 38.912 517.674 39.5733 517.674 40.32ZM518.97 40.32C518.97 39.808 519.077 39.3547 519.29 38.96C519.514 38.5547 519.813 38.24 520.186 38.016C520.57 37.792 521.002 37.68 521.482 37.68C521.962 37.68 522.389 37.792 522.762 38.016C523.146 38.24 523.445 38.5547 523.658 38.96C523.882 39.3547 523.994 39.808 523.994 40.32C523.994 40.832 523.882 41.2853 523.658 41.68C523.445 42.0747 523.146 42.3893 522.762 42.624C522.389 42.848 521.962 42.96 521.482 42.96C521.002 42.96 520.57 42.848 520.186 42.624C519.813 42.3893 519.514 42.0747 519.29 41.68C519.077 41.2853 518.97 40.832 518.97 40.32ZM27.08 59.64L30.28 67.56L32.376 62.2L34.6 67.56L37.8 59.64H36.36L34.504 64.456L32.36 59.08L30.36 64.424L28.52 59.64H27.08ZM42.531 64.728C42.531 64.4613 42.595 64.232 42.723 64.04C42.851 63.848 43.043 63.6987 43.299 63.592C43.5657 63.4853 43.907 63.432 44.323 63.432C44.771 63.432 45.1923 63.4907 45.587 63.608C45.9817 63.7147 46.3657 63.896 46.739 64.152V63.4C46.6643 63.304 46.5203 63.1813 46.307 63.032C46.0937 62.872 45.8057 62.7333 45.443 62.616C45.091 62.488 44.6483 62.424 44.115 62.424C43.2083 62.424 42.499 62.6427 41.987 63.08C41.4857 63.5067 41.235 64.0773 41.235 64.792C41.235 65.2933 41.3523 65.72 41.587 66.072C41.8217 66.424 42.131 66.696 42.515 66.888C42.9097 67.0693 43.331 67.16 43.779 67.16C44.1843 67.16 44.5897 67.0853 44.995 66.936C45.411 66.7867 45.7577 66.5573 46.035 66.248C46.323 65.9387 46.467 65.5493 46.467 65.08L46.211 64.12C46.211 64.504 46.115 64.8453 45.923 65.144C45.7417 65.432 45.491 65.656 45.171 65.816C44.8617 65.976 44.5097 66.056 44.115 66.056C43.8057 66.056 43.5283 66.008 43.283 65.912C43.0483 65.8053 42.8617 65.6507 42.723 65.448C42.595 65.2453 42.531 65.0053 42.531 64.728ZM42.339 61.336C42.4563 61.2507 42.6163 61.1493 42.819 61.032C43.0217 60.9147 43.267 60.8133 43.555 60.728C43.8537 60.6427 44.1843 60.6 44.547 60.6C44.771 60.6 44.9843 60.6213 45.187 60.664C45.3897 60.7067 45.5657 60.776 45.715 60.872C45.875 60.968 45.9977 61.1013 46.083 61.272C46.1683 61.432 46.211 61.64 46.211 61.896V67H47.491V61.72C47.491 61.24 47.3683 60.8347 47.123 60.504C46.8883 60.1733 46.5523 59.9227 46.115 59.752C45.6883 59.5707 45.187 59.48 44.611 59.48C43.9283 59.48 43.3417 59.5813 42.851 59.784C42.371 59.9867 41.9923 60.1893 41.715 60.392L42.339 61.336ZM52.5381 54.52V67H53.8181V54.52H52.5381ZM59.1056 54.52V67H60.3856V54.52H59.1056ZM68.5211 67.16C69.3105 67.16 69.9931 67.0053 70.5691 66.696C71.1558 66.376 71.6411 65.9067 72.0251 65.288L70.9851 64.632C70.7185 65.08 70.3931 65.416 70.0091 65.64C69.6251 65.8533 69.1825 65.96 68.6811 65.96C68.1798 65.96 67.7531 65.8533 67.4011 65.64C67.0491 65.4267 66.7825 65.1173 66.6011 64.712C66.4198 64.3067 66.3291 63.816 66.3291 63.24C66.3398 62.6747 66.4358 62.2 66.6171 61.816C66.8091 61.4213 67.0758 61.1227 67.4171 60.92C67.7691 60.7067 68.1905 60.6 68.6811 60.6C69.0971 60.6 69.4598 60.6907 69.7691 60.872C70.0785 61.0533 70.3185 61.304 70.4891 61.624C70.6705 61.944 70.7611 62.3227 70.7611 62.76C70.7611 62.8347 70.7451 62.9307 70.7131 63.048C70.6811 63.1547 70.6491 63.2347 70.6171 63.288L71.1291 62.552H65.8491V63.64H72.1371C72.1371 63.6187 72.1371 63.5707 72.1371 63.496C72.1478 63.4107 72.1531 63.3307 72.1531 63.256C72.1531 62.4773 72.0145 61.8053 71.7371 61.24C71.4598 60.6747 71.0598 60.2427 70.5371 59.944C70.0251 59.6347 69.4065 59.48 68.6811 59.48C67.9558 59.48 67.3158 59.64 66.7611 59.96C66.2171 60.28 65.7905 60.728 65.4811 61.304C65.1825 61.88 65.0331 62.552 65.0331 63.32C65.0331 64.0773 65.1771 64.744 65.4651 65.32C65.7638 65.896 66.1745 66.3493 66.6971 66.68C67.2305 67 67.8385 67.16 68.5211 67.16ZM75.6675 59.64V60.84H79.3475V59.64H75.6675ZM76.8675 57.08V67H78.1475V57.08H76.8675ZM83.8152 64.744L82.8072 65.368C82.9459 65.656 83.1486 65.9387 83.4152 66.216C83.6926 66.4933 84.0286 66.7227 84.4232 66.904C84.8179 67.0747 85.2606 67.16 85.7512 67.16C86.5086 67.16 87.1166 66.9467 87.5752 66.52C88.0446 66.0933 88.2792 65.56 88.2792 64.92C88.2792 64.4827 88.1726 64.1253 87.9592 63.848C87.7566 63.5707 87.4792 63.336 87.1272 63.144C86.7752 62.9413 86.3859 62.7547 85.9592 62.584C85.7032 62.4773 85.4579 62.3653 85.2232 62.248C84.9886 62.1307 84.7966 61.9973 84.6472 61.848C84.4979 61.6987 84.4232 61.528 84.4232 61.336C84.4232 61.0907 84.5192 60.9093 84.7112 60.792C84.9032 60.6747 85.1326 60.616 85.3992 60.616C85.7832 60.616 86.1246 60.7067 86.4232 60.888C86.7326 61.0693 86.9886 61.2987 87.1912 61.576L88.2152 60.92C88.0659 60.6427 87.8579 60.3973 87.5912 60.184C87.3246 59.9707 87.0152 59.8 86.6632 59.672C86.3219 59.544 85.9539 59.48 85.5592 59.48C85.1646 59.48 84.7806 59.5493 84.4072 59.688C84.0446 59.8267 83.7459 60.04 83.5112 60.328C83.2872 60.616 83.1752 60.9787 83.1752 61.416C83.1752 61.8427 83.2819 62.2 83.4952 62.488C83.7192 62.7653 83.9912 62.9947 84.3112 63.176C84.6419 63.3467 84.9672 63.496 85.2872 63.624C85.5752 63.7307 85.8472 63.848 86.1032 63.976C86.3592 64.0933 86.5672 64.2427 86.7272 64.424C86.8979 64.5947 86.9832 64.808 86.9832 65.064C86.9832 65.352 86.8766 65.5813 86.6632 65.752C86.4606 65.912 86.1779 65.992 85.8152 65.992C85.5166 65.992 85.2392 65.9387 84.9832 65.832C84.7379 65.7147 84.5192 65.56 84.3272 65.368C84.1352 65.176 83.9646 64.968 83.8152 64.744ZM99.4013 59.64V60.84H103.081V59.64H99.4013ZM100.601 57.08V67H101.881V57.08H100.601ZM106.605 63.32C106.605 64.056 106.77 64.7173 107.101 65.304C107.442 65.88 107.901 66.3333 108.477 66.664C109.053 66.9947 109.698 67.16 110.413 67.16C111.138 67.16 111.784 66.9947 112.349 66.664C112.925 66.3333 113.378 65.88 113.709 65.304C114.05 64.7173 114.221 64.056 114.221 63.32C114.221 62.5733 114.05 61.912 113.709 61.336C113.378 60.76 112.925 60.3067 112.349 59.976C111.784 59.6453 111.138 59.48 110.413 59.48C109.698 59.48 109.053 59.6453 108.477 59.976C107.901 60.3067 107.442 60.76 107.101 61.336C106.77 61.912 106.605 62.5733 106.605 63.32ZM107.901 63.32C107.901 62.808 108.008 62.3547 108.221 61.96C108.445 61.5547 108.744 61.24 109.117 61.016C109.501 60.792 109.933 60.68 110.413 60.68C110.893 60.68 111.32 60.792 111.693 61.016C112.077 61.24 112.376 61.5547 112.589 61.96C112.813 62.3547 112.925 62.808 112.925 63.32C112.925 63.832 112.813 64.2853 112.589 64.68C112.376 65.0747 112.077 65.3893 111.693 65.624C111.32 65.848 110.893 65.96 110.413 65.96C109.933 65.96 109.501 65.848 109.117 65.624C108.744 65.3893 108.445 65.0747 108.221 64.68C108.008 64.2853 107.901 63.832 107.901 63.32ZM127.816 59.64H126.536V67H127.816V59.64ZM130.04 61.048L130.744 59.992C130.552 59.7893 130.339 59.656 130.104 59.592C129.88 59.5173 129.635 59.48 129.368 59.48C129.027 59.48 128.691 59.6133 128.36 59.88C128.03 60.1467 127.758 60.5093 127.544 60.968C127.342 61.416 127.24 61.9333 127.24 62.52H127.816C127.816 62.168 127.848 61.8533 127.912 61.576C127.987 61.2987 128.115 61.08 128.296 60.92C128.478 60.76 128.728 60.68 129.048 60.68C129.262 60.68 129.438 60.712 129.576 60.776C129.715 60.8293 129.87 60.92 130.04 61.048ZM137.514 67.16C138.304 67.16 138.986 67.0053 139.562 66.696C140.149 66.376 140.634 65.9067 141.018 65.288L139.978 64.632C139.712 65.08 139.386 65.416 139.002 65.64C138.618 65.8533 138.176 65.96 137.674 65.96C137.173 65.96 136.746 65.8533 136.394 65.64C136.042 65.4267 135.776 65.1173 135.594 64.712C135.413 64.3067 135.322 63.816 135.322 63.24C135.333 62.6747 135.429 62.2 135.61 61.816C135.802 61.4213 136.069 61.1227 136.41 60.92C136.762 60.7067 137.184 60.6 137.674 60.6C138.09 60.6 138.453 60.6907 138.762 60.872C139.072 61.0533 139.312 61.304 139.482 61.624C139.664 61.944 139.754 62.3227 139.754 62.76C139.754 62.8347 139.738 62.9307 139.706 63.048C139.674 63.1547 139.642 63.2347 139.61 63.288L140.122 62.552H134.842V63.64H141.13C141.13 63.6187 141.13 63.5707 141.13 63.496C141.141 63.4107 141.146 63.3307 141.146 63.256C141.146 62.4773 141.008 61.8053 140.73 61.24C140.453 60.6747 140.053 60.2427 139.53 59.944C139.018 59.6347 138.4 59.48 137.674 59.48C136.949 59.48 136.309 59.64 135.754 59.96C135.21 60.28 134.784 60.728 134.474 61.304C134.176 61.88 134.026 62.552 134.026 63.32C134.026 64.0773 134.17 64.744 134.458 65.32C134.757 65.896 135.168 66.3493 135.69 66.68C136.224 67 136.832 67.16 137.514 67.16ZM146.357 63.32C146.357 62.808 146.463 62.3547 146.677 61.96C146.901 61.5547 147.199 61.24 147.573 61.016C147.957 60.792 148.389 60.68 148.869 60.68C149.263 60.68 149.631 60.744 149.973 60.872C150.325 60.9893 150.629 61.1493 150.885 61.352C151.141 61.5547 151.322 61.7787 151.429 62.024V60.424C151.173 60.1253 150.805 59.896 150.325 59.736C149.855 59.5653 149.37 59.48 148.869 59.48C148.154 59.48 147.509 59.6453 146.933 59.976C146.357 60.3067 145.898 60.76 145.557 61.336C145.226 61.912 145.061 62.5733 145.061 63.32C145.061 64.056 145.226 64.7173 145.557 65.304C145.898 65.88 146.357 66.3333 146.933 66.664C147.509 66.9947 148.154 67.16 148.869 67.16C149.37 67.16 149.855 67.08 150.325 66.92C150.805 66.7493 151.173 66.5147 151.429 66.216V64.616C151.322 64.8507 151.141 65.0747 150.885 65.288C150.629 65.4907 150.325 65.656 149.973 65.784C149.631 65.9013 149.263 65.96 148.869 65.96C148.389 65.96 147.957 65.848 147.573 65.624C147.199 65.3893 146.901 65.0747 146.677 64.68C146.463 64.2853 146.357 63.832 146.357 63.32ZM159.149 67.16C159.939 67.16 160.621 67.0053 161.197 66.696C161.784 66.376 162.269 65.9067 162.653 65.288L161.613 64.632C161.347 65.08 161.021 65.416 160.637 65.64C160.253 65.8533 159.811 65.96 159.309 65.96C158.808 65.96 158.381 65.8533 158.029 65.64C157.677 65.4267 157.411 65.1173 157.229 64.712C157.048 64.3067 156.957 63.816 156.957 63.24C156.968 62.6747 157.064 62.2 157.245 61.816C157.437 61.4213 157.704 61.1227 158.045 60.92C158.397 60.7067 158.819 60.6 159.309 60.6C159.725 60.6 160.088 60.6907 160.397 60.872C160.707 61.0533 160.947 61.304 161.117 61.624C161.299 61.944 161.389 62.3227 161.389 62.76C161.389 62.8347 161.373 62.9307 161.341 63.048C161.309 63.1547 161.277 63.2347 161.245 63.288L161.757 62.552H156.477V63.64H162.765C162.765 63.6187 162.765 63.5707 162.765 63.496C162.776 63.4107 162.781 63.3307 162.781 63.256C162.781 62.4773 162.643 61.8053 162.365 61.24C162.088 60.6747 161.688 60.2427 161.165 59.944C160.653 59.6347 160.035 59.48 159.309 59.48C158.584 59.48 157.944 59.64 157.389 59.96C156.845 60.28 156.419 60.728 156.109 61.304C155.811 61.88 155.661 62.552 155.661 63.32C155.661 64.0773 155.805 64.744 156.093 65.32C156.392 65.896 156.803 66.3493 157.325 66.68C157.859 67 158.467 67.16 159.149 67.16ZM167.416 56.6C167.416 56.8347 167.501 57.0427 167.672 57.224C167.853 57.3947 168.061 57.48 168.296 57.48C168.541 57.48 168.749 57.3947 168.92 57.224C169.09 57.0427 169.176 56.8347 169.176 56.6C169.176 56.3547 169.09 56.1467 168.92 55.976C168.749 55.8053 168.541 55.72 168.296 55.72C168.061 55.72 167.853 55.8053 167.672 55.976C167.501 56.1467 167.416 56.3547 167.416 56.6ZM167.656 59.64V67H168.936V59.64H167.656ZM173.252 59.64L176.772 67.56L180.292 59.64H178.852L176.772 64.84L174.692 59.64H173.252ZM186.992 67.16C187.782 67.16 188.464 67.0053 189.04 66.696C189.627 66.376 190.112 65.9067 190.496 65.288L189.456 64.632C189.19 65.08 188.864 65.416 188.48 65.64C188.096 65.8533 187.654 65.96 187.152 65.96C186.651 65.96 186.224 65.8533 185.872 65.64C185.52 65.4267 185.254 65.1173 185.072 64.712C184.891 64.3067 184.8 63.816 184.8 63.24C184.811 62.6747 184.907 62.2 185.088 61.816C185.28 61.4213 185.547 61.1227 185.888 60.92C186.24 60.7067 186.662 60.6 187.152 60.6C187.568 60.6 187.931 60.6907 188.24 60.872C188.55 61.0533 188.79 61.304 188.96 61.624C189.142 61.944 189.232 62.3227 189.232 62.76C189.232 62.8347 189.216 62.9307 189.184 63.048C189.152 63.1547 189.12 63.2347 189.088 63.288L189.6 62.552H184.32V63.64H190.608C190.608 63.6187 190.608 63.5707 190.608 63.496C190.619 63.4107 190.624 63.3307 190.624 63.256C190.624 62.4773 190.486 61.8053 190.208 61.24C189.931 60.6747 189.531 60.2427 189.008 59.944C188.496 59.6347 187.878 59.48 187.152 59.48C186.427 59.48 185.787 59.64 185.232 59.96C184.688 60.28 184.262 60.728 183.952 61.304C183.654 61.88 183.504 62.552 183.504 63.32C183.504 64.0773 183.648 64.744 183.936 65.32C184.235 65.896 184.646 66.3493 185.168 66.68C185.702 67 186.31 67.16 186.992 67.16ZM203.512 64.728C203.512 64.4613 203.576 64.232 203.704 64.04C203.832 63.848 204.024 63.6987 204.28 63.592C204.546 63.4853 204.888 63.432 205.304 63.432C205.752 63.432 206.173 63.4907 206.568 63.608C206.962 63.7147 207.346 63.896 207.72 64.152V63.4C207.645 63.304 207.501 63.1813 207.288 63.032C207.074 62.872 206.786 62.7333 206.424 62.616C206.072 62.488 205.629 62.424 205.096 62.424C204.189 62.424 203.48 62.6427 202.968 63.08C202.466 63.5067 202.216 64.0773 202.216 64.792C202.216 65.2933 202.333 65.72 202.568 66.072C202.802 66.424 203.112 66.696 203.496 66.888C203.89 67.0693 204.312 67.16 204.76 67.16C205.165 67.16 205.57 67.0853 205.976 66.936C206.392 66.7867 206.738 66.5573 207.016 66.248C207.304 65.9387 207.448 65.5493 207.448 65.08L207.192 64.12C207.192 64.504 207.096 64.8453 206.904 65.144C206.722 65.432 206.472 65.656 206.152 65.816C205.842 65.976 205.49 66.056 205.096 66.056C204.786 66.056 204.509 66.008 204.264 65.912C204.029 65.8053 203.842 65.6507 203.704 65.448C203.576 65.2453 203.512 65.0053 203.512 64.728ZM203.32 61.336C203.437 61.2507 203.597 61.1493 203.8 61.032C204.002 60.9147 204.248 60.8133 204.536 60.728C204.834 60.6427 205.165 60.6 205.528 60.6C205.752 60.6 205.965 60.6213 206.168 60.664C206.37 60.7067 206.546 60.776 206.696 60.872C206.856 60.968 206.978 61.1013 207.064 61.272C207.149 61.432 207.192 61.64 207.192 61.896V67H208.472V61.72C208.472 61.24 208.349 60.8347 208.104 60.504C207.869 60.1733 207.533 59.9227 207.096 59.752C206.669 59.5707 206.168 59.48 205.592 59.48C204.909 59.48 204.322 59.5813 203.832 59.784C203.352 59.9867 202.973 60.1893 202.696 60.392L203.32 61.336ZM218.239 62.52V67H219.519V62.36C219.519 61.4747 219.289 60.776 218.831 60.264C218.383 59.7413 217.769 59.48 216.991 59.48C216.511 59.48 216.084 59.5867 215.711 59.8C215.348 60.0133 215.044 60.344 214.799 60.792V59.64H213.519V67H214.799V62.52C214.799 62.1573 214.873 61.8373 215.023 61.56C215.183 61.2827 215.401 61.0693 215.679 60.92C215.967 60.76 216.297 60.68 216.671 60.68C217.183 60.68 217.572 60.8347 217.839 61.144C218.105 61.4533 218.239 61.912 218.239 62.52ZM230.325 54.52V67H231.605V54.52H230.325ZM224.165 63.32C224.165 64.1093 224.33 64.792 224.661 65.368C224.992 65.944 225.434 66.3867 225.989 66.696C226.544 67.0053 227.152 67.16 227.813 67.16C228.432 67.16 228.97 67.0053 229.429 66.696C229.888 66.3867 230.245 65.944 230.501 65.368C230.768 64.792 230.901 64.1093 230.901 63.32C230.901 62.52 230.768 61.8373 230.501 61.272C230.245 60.696 229.888 60.2533 229.429 59.944C228.97 59.6347 228.432 59.48 227.813 59.48C227.152 59.48 226.544 59.6347 225.989 59.944C225.434 60.2533 224.992 60.696 224.661 61.272C224.33 61.8373 224.165 62.52 224.165 63.32ZM225.461 63.32C225.461 62.7547 225.573 62.2747 225.797 61.88C226.032 61.4853 226.341 61.1867 226.725 60.984C227.109 60.7813 227.525 60.68 227.973 60.68C228.346 60.68 228.714 60.7813 229.077 60.984C229.44 61.1867 229.738 61.4853 229.973 61.88C230.208 62.2747 230.325 62.7547 230.325 63.32C230.325 63.8853 230.208 64.3653 229.973 64.76C229.738 65.1547 229.44 65.4533 229.077 65.656C228.714 65.8587 228.346 65.96 227.973 65.96C227.525 65.96 227.109 65.8587 226.725 65.656C226.341 65.4533 226.032 65.1547 225.797 64.76C225.573 64.3653 225.461 63.8853 225.461 63.32ZM245.319 67H250.967V65.72H245.319V67ZM245.319 57.08H250.967V55.8H245.319V57.08ZM245.319 61.56H250.647V60.28H245.319V61.56ZM244.567 55.8V67H245.927V55.8H244.567ZM255.044 59.64V60.84H258.724V59.64H255.044ZM256.244 57.08V67H257.524V57.08H256.244ZM264.168 54.52H262.888V67H264.168V54.52ZM267.608 62.52V67H268.888V62.36C268.888 61.72 268.781 61.1867 268.568 60.76C268.365 60.3333 268.072 60.0133 267.688 59.8C267.314 59.5867 266.872 59.48 266.36 59.48C265.848 59.48 265.394 59.6133 265 59.88C264.616 60.1467 264.312 60.5093 264.088 60.968C263.864 61.416 263.752 61.9333 263.752 62.52H264.168C264.168 62.168 264.242 61.8533 264.392 61.576C264.552 61.2987 264.77 61.08 265.048 60.92C265.336 60.76 265.666 60.68 266.04 60.68C266.562 60.68 266.952 60.8347 267.208 61.144C267.474 61.4533 267.608 61.912 267.608 62.52ZM277.022 67.16C277.811 67.16 278.494 67.0053 279.07 66.696C279.656 66.376 280.142 65.9067 280.526 65.288L279.486 64.632C279.219 65.08 278.894 65.416 278.51 65.64C278.126 65.8533 277.683 65.96 277.182 65.96C276.68 65.96 276.254 65.8533 275.902 65.64C275.55 65.4267 275.283 65.1173 275.102 64.712C274.92 64.3067 274.83 63.816 274.83 63.24C274.84 62.6747 274.936 62.2 275.118 61.816C275.31 61.4213 275.576 61.1227 275.918 60.92C276.27 60.7067 276.691 60.6 277.182 60.6C277.598 60.6 277.96 60.6907 278.27 60.872C278.579 61.0533 278.819 61.304 278.99 61.624C279.171 61.944 279.262 62.3227 279.262 62.76C279.262 62.8347 279.246 62.9307 279.214 63.048C279.182 63.1547 279.15 63.2347 279.118 63.288L279.63 62.552H274.35V63.64H280.638C280.638 63.6187 280.638 63.5707 280.638 63.496C280.648 63.4107 280.654 63.3307 280.654 63.256C280.654 62.4773 280.515 61.8053 280.238 61.24C279.96 60.6747 279.56 60.2427 279.038 59.944C278.526 59.6347 277.907 59.48 277.182 59.48C276.456 59.48 275.816 59.64 275.262 59.96C274.718 60.28 274.291 60.728 273.982 61.304C273.683 61.88 273.534 62.552 273.534 63.32C273.534 64.0773 273.678 64.744 273.966 65.32C274.264 65.896 274.675 66.3493 275.198 66.68C275.731 67 276.339 67.16 277.022 67.16ZM286.568 59.64H285.288V67H286.568V59.64ZM288.792 61.048L289.496 59.992C289.304 59.7893 289.091 59.656 288.856 59.592C288.632 59.5173 288.387 59.48 288.12 59.48C287.779 59.48 287.443 59.6133 287.112 59.88C286.781 60.1467 286.509 60.5093 286.296 60.968C286.093 61.416 285.992 61.9333 285.992 62.52H286.568C286.568 62.168 286.6 61.8533 286.664 61.576C286.739 61.2987 286.867 61.08 287.048 60.92C287.229 60.76 287.48 60.68 287.8 60.68C288.013 60.68 288.189 60.712 288.328 60.776C288.467 60.8293 288.621 60.92 288.792 61.048ZM293.653 56.6C293.653 56.8347 293.738 57.0427 293.909 57.224C294.09 57.3947 294.298 57.48 294.533 57.48C294.778 57.48 294.986 57.3947 295.157 57.224C295.327 57.0427 295.413 56.8347 295.413 56.6C295.413 56.3547 295.327 56.1467 295.157 55.976C294.986 55.8053 294.778 55.72 294.533 55.72C294.298 55.72 294.09 55.8053 293.909 55.976C293.738 56.1467 293.653 56.3547 293.653 56.6ZM293.893 59.64V67H295.173V59.64H293.893ZM301.969 64.12V59.64H300.689V64.28C300.689 65.1547 300.918 65.8533 301.377 66.376C301.835 66.8987 302.449 67.16 303.217 67.16C303.707 67.16 304.134 67.0533 304.497 66.84C304.859 66.616 305.163 66.2853 305.409 65.848V67H306.689V59.64H305.409V64.12C305.409 64.4827 305.329 64.8027 305.169 65.08C305.019 65.3573 304.801 65.576 304.513 65.736C304.235 65.8853 303.91 65.96 303.537 65.96C303.025 65.96 302.635 65.8 302.369 65.48C302.102 65.16 301.969 64.7067 301.969 64.12ZM322.055 62.36C322.055 61.752 321.959 61.2347 321.767 60.808C321.586 60.3707 321.319 60.04 320.967 59.816C320.615 59.592 320.188 59.48 319.687 59.48C319.196 59.48 318.759 59.5973 318.375 59.832C317.991 60.056 317.671 60.3973 317.415 60.856C317.244 60.4187 316.972 60.0827 316.599 59.848C316.236 59.6027 315.799 59.48 315.287 59.48C314.828 59.48 314.428 59.5813 314.087 59.784C313.756 59.9867 313.479 60.296 313.255 60.712V59.64H311.975V67H313.255V62.52C313.255 62.136 313.324 61.8053 313.463 61.528C313.602 61.2507 313.799 61.0427 314.055 60.904C314.311 60.7547 314.615 60.68 314.967 60.68C315.447 60.68 315.799 60.8293 316.023 61.128C316.258 61.4267 316.375 61.8907 316.375 62.52V67H317.655V62.52C317.655 62.136 317.724 61.8053 317.863 61.528C318.002 61.2507 318.199 61.0427 318.455 60.904C318.711 60.7547 319.015 60.68 319.367 60.68C319.847 60.68 320.199 60.8293 320.423 61.128C320.658 61.4267 320.775 61.8907 320.775 62.52V67H322.055V62.36ZM335.592 64.728C335.592 64.4613 335.656 64.232 335.784 64.04C335.912 63.848 336.104 63.6987 336.36 63.592C336.627 63.4853 336.968 63.432 337.384 63.432C337.832 63.432 338.254 63.4907 338.648 63.608C339.043 63.7147 339.427 63.896 339.8 64.152V63.4C339.726 63.304 339.582 63.1813 339.368 63.032C339.155 62.872 338.867 62.7333 338.504 62.616C338.152 62.488 337.71 62.424 337.176 62.424C336.27 62.424 335.56 62.6427 335.048 63.08C334.547 63.5067 334.296 64.0773 334.296 64.792C334.296 65.2933 334.414 65.72 334.648 66.072C334.883 66.424 335.192 66.696 335.576 66.888C335.971 67.0693 336.392 67.16 336.84 67.16C337.246 67.16 337.651 67.0853 338.056 66.936C338.472 66.7867 338.819 66.5573 339.096 66.248C339.384 65.9387 339.528 65.5493 339.528 65.08L339.272 64.12C339.272 64.504 339.176 64.8453 338.984 65.144C338.803 65.432 338.552 65.656 338.232 65.816C337.923 65.976 337.571 66.056 337.176 66.056C336.867 66.056 336.59 66.008 336.344 65.912C336.11 65.8053 335.923 65.6507 335.784 65.448C335.656 65.2453 335.592 65.0053 335.592 64.728ZM335.4 61.336C335.518 61.2507 335.678 61.1493 335.88 61.032C336.083 60.9147 336.328 60.8133 336.616 60.728C336.915 60.6427 337.246 60.6 337.608 60.6C337.832 60.6 338.046 60.6213 338.248 60.664C338.451 60.7067 338.627 60.776 338.776 60.872C338.936 60.968 339.059 61.1013 339.144 61.272C339.23 61.432 339.272 61.64 339.272 61.896V67H340.552V61.72C340.552 61.24 340.43 60.8347 340.184 60.504C339.95 60.1733 339.614 59.9227 339.176 59.752C338.75 59.5707 338.248 59.48 337.672 59.48C336.99 59.48 336.403 59.5813 335.912 59.784C335.432 59.9867 335.054 60.1893 334.776 60.392L335.4 61.336ZM351.119 54.52V67H352.399V54.52H351.119ZM344.959 63.32C344.959 64.1093 345.125 64.792 345.455 65.368C345.786 65.944 346.229 66.3867 346.783 66.696C347.338 67.0053 347.946 67.16 348.607 67.16C349.226 67.16 349.765 67.0053 350.223 66.696C350.682 66.3867 351.039 65.944 351.295 65.368C351.562 64.792 351.695 64.1093 351.695 63.32C351.695 62.52 351.562 61.8373 351.295 61.272C351.039 60.696 350.682 60.2533 350.223 59.944C349.765 59.6347 349.226 59.48 348.607 59.48C347.946 59.48 347.338 59.6347 346.783 59.944C346.229 60.2533 345.786 60.696 345.455 61.272C345.125 61.8373 344.959 62.52 344.959 63.32ZM346.255 63.32C346.255 62.7547 346.367 62.2747 346.591 61.88C346.826 61.4853 347.135 61.1867 347.519 60.984C347.903 60.7813 348.319 60.68 348.767 60.68C349.141 60.68 349.509 60.7813 349.871 60.984C350.234 61.1867 350.533 61.4853 350.767 61.88C351.002 62.2747 351.119 62.7547 351.119 63.32C351.119 63.8853 351.002 64.3653 350.767 64.76C350.533 65.1547 350.234 65.4533 349.871 65.656C349.509 65.8587 349.141 65.96 348.767 65.96C348.319 65.96 347.903 65.8587 347.519 65.656C347.135 65.4533 346.826 65.1547 346.591 64.76C346.367 64.3653 346.255 63.8853 346.255 63.32ZM363.124 54.52V67H364.404V54.52H363.124ZM356.964 63.32C356.964 64.1093 357.13 64.792 357.46 65.368C357.791 65.944 358.234 66.3867 358.788 66.696C359.343 67.0053 359.951 67.16 360.612 67.16C361.231 67.16 361.77 67.0053 362.228 66.696C362.687 66.3867 363.044 65.944 363.3 65.368C363.567 64.792 363.7 64.1093 363.7 63.32C363.7 62.52 363.567 61.8373 363.3 61.272C363.044 60.696 362.687 60.2533 362.228 59.944C361.77 59.6347 361.231 59.48 360.612 59.48C359.951 59.48 359.343 59.6347 358.788 59.944C358.234 60.2533 357.791 60.696 357.46 61.272C357.13 61.8373 356.964 62.52 356.964 63.32ZM358.26 63.32C358.26 62.7547 358.372 62.2747 358.596 61.88C358.831 61.4853 359.14 61.1867 359.524 60.984C359.908 60.7813 360.324 60.68 360.772 60.68C361.146 60.68 361.514 60.7813 361.876 60.984C362.239 61.1867 362.538 61.4853 362.772 61.88C363.007 62.2747 363.124 62.7547 363.124 63.32C363.124 63.8853 363.007 64.3653 362.772 64.76C362.538 65.1547 362.239 65.4533 361.876 65.656C361.514 65.8587 361.146 65.96 360.772 65.96C360.324 65.96 359.908 65.8587 359.524 65.656C359.14 65.4533 358.831 65.1547 358.596 64.76C358.372 64.3653 358.26 63.8853 358.26 63.32ZM370.889 59.64H369.609V67H370.889V59.64ZM373.113 61.048L373.817 59.992C373.625 59.7893 373.412 59.656 373.177 59.592C372.953 59.5173 372.708 59.48 372.441 59.48C372.1 59.48 371.764 59.6133 371.433 59.88C371.103 60.1467 370.831 60.5093 370.617 60.968C370.415 61.416 370.313 61.9333 370.313 62.52H370.889C370.889 62.168 370.921 61.8533 370.985 61.576C371.06 61.2987 371.188 61.08 371.369 60.92C371.551 60.76 371.801 60.68 372.121 60.68C372.335 60.68 372.511 60.712 372.649 60.776C372.788 60.8293 372.943 60.92 373.113 61.048ZM380.587 67.16C381.377 67.16 382.059 67.0053 382.635 66.696C383.222 66.376 383.707 65.9067 384.091 65.288L383.051 64.632C382.785 65.08 382.459 65.416 382.075 65.64C381.691 65.8533 381.249 65.96 380.747 65.96C380.246 65.96 379.819 65.8533 379.467 65.64C379.115 65.4267 378.849 65.1173 378.667 64.712C378.486 64.3067 378.395 63.816 378.395 63.24C378.406 62.6747 378.502 62.2 378.683 61.816C378.875 61.4213 379.142 61.1227 379.483 60.92C379.835 60.7067 380.257 60.6 380.747 60.6C381.163 60.6 381.526 60.6907 381.835 60.872C382.145 61.0533 382.385 61.304 382.555 61.624C382.737 61.944 382.827 62.3227 382.827 62.76C382.827 62.8347 382.811 62.9307 382.779 63.048C382.747 63.1547 382.715 63.2347 382.683 63.288L383.195 62.552H377.915V63.64H384.203C384.203 63.6187 384.203 63.5707 384.203 63.496C384.214 63.4107 384.219 63.3307 384.219 63.256C384.219 62.4773 384.081 61.8053 383.803 61.24C383.526 60.6747 383.126 60.2427 382.603 59.944C382.091 59.6347 381.473 59.48 380.747 59.48C380.022 59.48 379.382 59.64 378.827 59.96C378.283 60.28 377.857 60.728 377.547 61.304C377.249 61.88 377.099 62.552 377.099 63.32C377.099 64.0773 377.243 64.744 377.531 65.32C377.83 65.896 378.241 66.3493 378.763 66.68C379.297 67 379.905 67.16 380.587 67.16ZM389.158 64.744L388.15 65.368C388.288 65.656 388.491 65.9387 388.758 66.216C389.035 66.4933 389.371 66.7227 389.766 66.904C390.16 67.0747 390.603 67.16 391.094 67.16C391.851 67.16 392.459 66.9467 392.918 66.52C393.387 66.0933 393.622 65.56 393.622 64.92C393.622 64.4827 393.515 64.1253 393.302 63.848C393.099 63.5707 392.822 63.336 392.47 63.144C392.118 62.9413 391.728 62.7547 391.302 62.584C391.046 62.4773 390.8 62.3653 390.566 62.248C390.331 62.1307 390.139 61.9973 389.99 61.848C389.84 61.6987 389.766 61.528 389.766 61.336C389.766 61.0907 389.862 60.9093 390.054 60.792C390.246 60.6747 390.475 60.616 390.742 60.616C391.126 60.616 391.467 60.7067 391.766 60.888C392.075 61.0693 392.331 61.2987 392.534 61.576L393.558 60.92C393.408 60.6427 393.2 60.3973 392.934 60.184C392.667 59.9707 392.358 59.8 392.006 59.672C391.664 59.544 391.296 59.48 390.902 59.48C390.507 59.48 390.123 59.5493 389.75 59.688C389.387 59.8267 389.088 60.04 388.854 60.328C388.63 60.616 388.518 60.9787 388.518 61.416C388.518 61.8427 388.624 62.2 388.838 62.488C389.062 62.7653 389.334 62.9947 389.654 63.176C389.984 63.3467 390.31 63.496 390.63 63.624C390.918 63.7307 391.19 63.848 391.446 63.976C391.702 64.0933 391.91 64.2427 392.07 64.424C392.24 64.5947 392.326 64.808 392.326 65.064C392.326 65.352 392.219 65.5813 392.006 65.752C391.803 65.912 391.52 65.992 391.158 65.992C390.859 65.992 390.582 65.9387 390.326 65.832C390.08 65.7147 389.862 65.56 389.67 65.368C389.478 65.176 389.307 64.968 389.158 64.744ZM398.491 64.744L397.483 65.368C397.622 65.656 397.824 65.9387 398.091 66.216C398.368 66.4933 398.704 66.7227 399.099 66.904C399.494 67.0747 399.936 67.16 400.427 67.16C401.184 67.16 401.792 66.9467 402.251 66.52C402.72 66.0933 402.955 65.56 402.955 64.92C402.955 64.4827 402.848 64.1253 402.635 63.848C402.432 63.5707 402.155 63.336 401.803 63.144C401.451 62.9413 401.062 62.7547 400.635 62.584C400.379 62.4773 400.134 62.3653 399.899 62.248C399.664 62.1307 399.472 61.9973 399.323 61.848C399.174 61.6987 399.099 61.528 399.099 61.336C399.099 61.0907 399.195 60.9093 399.387 60.792C399.579 60.6747 399.808 60.616 400.075 60.616C400.459 60.616 400.8 60.7067 401.099 60.888C401.408 61.0693 401.664 61.2987 401.867 61.576L402.891 60.92C402.742 60.6427 402.534 60.3973 402.267 60.184C402 59.9707 401.691 59.8 401.339 59.672C400.998 59.544 400.63 59.48 400.235 59.48C399.84 59.48 399.456 59.5493 399.083 59.688C398.72 59.8267 398.422 60.04 398.187 60.328C397.963 60.616 397.851 60.9787 397.851 61.416C397.851 61.8427 397.958 62.2 398.171 62.488C398.395 62.7653 398.667 62.9947 398.987 63.176C399.318 63.3467 399.643 63.496 399.963 63.624C400.251 63.7307 400.523 63.848 400.779 63.976C401.035 64.0933 401.243 64.2427 401.403 64.424C401.574 64.5947 401.659 64.808 401.659 65.064C401.659 65.352 401.552 65.5813 401.339 65.752C401.136 65.912 400.854 65.992 400.491 65.992C400.192 65.992 399.915 65.9387 399.659 65.832C399.414 65.7147 399.195 65.56 399.003 65.368C398.811 65.176 398.64 64.968 398.491 64.744Z" fill="#B3AFAF"/>
</svg>
